{
  "asset": {"version": "2.0"},
  "scenes": [{"nodes": [0]}],
  "nodes": [{"mesh": 0, "name": "Brain"}],
  "meshes": [{
    "name": "BrainMesh",
    "primitives": [{
      "attributes": {"POSITION": 0},
      "indices": 1
    }]
  }],
  "buffers": [{"byteLength": 84}],
  "bufferViews": [
    {"buffer": 0, "byteOffset": 0, "byteLength": 60, "target": 34962},
    {"buffer": 0, "byteOffset": 60, "byteLength": 24, "target": 34963}
  ],
  "accessors": [
    {"bufferView": 0, "componentType": 5126, "count": 3, "type": "VEC3", "max": [1,1,0], "min": [-1,-1,0]},
    {"bufferView": 1, "componentType": 5123, "count": 6, "type": "SCALAR"}
  ]
}

